<svg width="555" height="296" viewBox="0 0 555 296" fill="none" xmlns="http://www.w3.org/2000/svg">
<path d="M33.3924 86.7325C-13.7738 144.612 87.4911 269.462 300.506 283.384C318.156 284.537 334.656 284.042 350.054 282.144C520.493 261.13 555.805 68.1861 518.592 36.2645C472.946 -3.76189 103.3 0.946716 33.3924 86.7325Z" fill="#9F5DF1"/>
<mask id="mask0_1798_76371" style="mask-type:alpha" maskUnits="userSpaceOnUse" x="35" y="15" width="490" height="255">
<path d="M302.748 268.722C506.935 281.704 550.69 70.7541 511.797 38.3003C468.042 0.978397 113.715 5.36885 46.7044 85.3583C1.49274 139.327 98.5612 255.741 302.748 268.722Z" fill="white"/>
</mask>
<g mask="url(#mask0_1798_76371)">
<mask id="path-3-inside-1_1798_76371" fill="white">
<path d="M-9.24341 9.24316H527.405V297.784H-9.24341V9.24316Z"/>
</mask>
<path d="M-9.24341 9.24316H527.405V297.784H-9.24341V9.24316Z" fill="#F4ECFF" stroke="#A6EDEC" stroke-width="2" mask="url(#path-3-inside-1_1798_76371)"/>
<circle opacity="0.3" cx="316.973" cy="167.298" r="128.649" fill="#C1A1F1"/>
<circle opacity="0.4" cx="316.973" cy="167.297" r="110.27" fill="#9F5DF1"/>
<path fill-rule="evenodd" clip-rule="evenodd" d="M394.162 95.6216V215.602C394.162 225.971 385.428 234.378 374.651 234.378H265.727C254.949 234.378 246.216 225.971 246.216 215.602V95.6216H394.162Z" fill="white"/>
<path fill-rule="evenodd" clip-rule="evenodd" d="M393.243 127.784H247.135V94.7026H393.243V127.784Z" fill="#F2675E"/>
<path fill-rule="evenodd" clip-rule="evenodd" d="M372.108 233.459H241.418C232.396 233.459 225.081 222.763 225.081 209.567H355.772C355.772 222.763 363.087 233.459 372.108 233.459" fill="white"/>
<path d="M246.216 209.662V95.6216H393.243V215.202C393.243 225.537 384.564 233.459 373.853 233.459H265.514" stroke="#741CDB" stroke-width="3" stroke-linecap="round" stroke-linejoin="round"/>
<path fill-rule="evenodd" clip-rule="evenodd" d="M393.243 127.784H246.216V95.6216H393.243V127.784Z" stroke="#741CDB" stroke-width="3" stroke-linecap="round" stroke-linejoin="round"/>
<path fill-rule="evenodd" clip-rule="evenodd" d="M372.108 233.459H241.418C232.396 233.459 225.081 223.174 225.081 210.486H355.772C355.772 223.174 363.087 233.459 372.108 233.459Z" stroke="#741CDB" stroke-width="3" stroke-linecap="round" stroke-linejoin="round"/>
<path d="M288.796 103.659H296.428C298.252 103.659 299.86 104.011 301.252 104.715C302.66 105.403 303.748 106.379 304.516 107.643C305.3 108.907 305.692 110.379 305.692 112.059C305.692 113.739 305.3 115.211 304.516 116.475C303.748 117.739 302.66 118.723 301.252 119.427C299.86 120.115 298.252 120.459 296.428 120.459H288.796V103.659ZM296.236 117.267C297.916 117.267 299.252 116.803 300.244 115.875C301.252 114.931 301.756 113.659 301.756 112.059C301.756 110.459 301.252 109.195 300.244 108.267C299.252 107.323 297.916 106.851 296.236 106.851H292.684V117.267H296.236ZM314.969 107.355C316.969 107.355 318.505 107.835 319.577 108.795C320.649 109.739 321.185 111.171 321.185 113.091V120.459H317.681V118.851C316.977 120.051 315.665 120.651 313.745 120.651C312.753 120.651 311.889 120.483 311.153 120.147C310.433 119.811 309.881 119.347 309.497 118.755C309.113 118.163 308.921 117.491 308.921 116.739C308.921 115.539 309.369 114.595 310.265 113.907C311.177 113.219 312.577 112.875 314.465 112.875H317.441C317.441 112.059 317.193 111.435 316.697 111.003C316.201 110.555 315.457 110.331 314.465 110.331C313.777 110.331 313.097 110.443 312.425 110.667C311.769 110.875 311.209 111.163 310.745 111.531L309.401 108.915C310.105 108.419 310.945 108.035 311.921 107.763C312.913 107.491 313.929 107.355 314.969 107.355ZM314.681 118.131C315.321 118.131 315.889 117.987 316.385 117.699C316.881 117.395 317.233 116.955 317.441 116.379V115.059H314.873C313.337 115.059 312.569 115.563 312.569 116.571C312.569 117.051 312.753 117.435 313.121 117.723C313.505 117.995 314.025 118.131 314.681 118.131ZM334.301 119.835C333.933 120.107 333.477 120.315 332.933 120.459C332.405 120.587 331.845 120.651 331.253 120.651C329.717 120.651 328.525 120.259 327.677 119.475C326.845 118.691 326.429 117.539 326.429 116.019V110.715H324.437V107.835H326.429V104.691H330.173V107.835H333.389V110.715H330.173V115.971C330.173 116.515 330.309 116.939 330.581 117.243C330.869 117.531 331.269 117.675 331.781 117.675C332.373 117.675 332.877 117.515 333.293 117.195L334.301 119.835ZM350.052 114.051C350.052 114.099 350.028 114.435 349.98 115.059H340.212C340.388 115.859 340.804 116.491 341.46 116.955C342.116 117.419 342.932 117.651 343.908 117.651C344.58 117.651 345.172 117.555 345.684 117.363C346.212 117.155 346.7 116.835 347.148 116.403L349.14 118.563C347.924 119.955 346.148 120.651 343.812 120.651C342.356 120.651 341.068 120.371 339.948 119.811C338.828 119.235 337.964 118.443 337.356 117.435C336.748 116.427 336.444 115.283 336.444 114.003C336.444 112.739 336.74 111.603 337.332 110.595C337.94 109.571 338.764 108.779 339.804 108.219C340.86 107.643 342.036 107.355 343.332 107.355C344.596 107.355 345.74 107.627 346.764 108.171C347.788 108.715 348.588 109.499 349.164 110.523C349.756 111.531 350.052 112.707 350.052 114.051ZM343.356 110.187C342.508 110.187 341.796 110.427 341.22 110.907C340.644 111.387 340.292 112.043 340.164 112.875H346.524C346.396 112.059 346.044 111.411 345.468 110.931C344.892 110.435 344.188 110.187 343.356 110.187Z" fill="white"/>
<path d="M312.381 181.288C312.381 178.792 312.933 176.728 314.037 175.096C315.189 173.464 316.845 171.664 319.005 169.696C320.589 168.256 321.741 167.056 322.461 166.096C323.229 165.088 323.613 163.96 323.613 162.712C323.613 160.936 322.893 159.544 321.453 158.536C320.061 157.48 318.189 156.952 315.837 156.952C313.581 156.952 311.565 157.432 309.789 158.392C308.061 159.304 306.597 160.6 305.397 162.28L296.685 157.168C298.701 154.096 301.413 151.72 304.821 150.04C308.277 148.36 312.357 147.52 317.061 147.52C322.581 147.52 326.997 148.696 330.309 151.048C333.669 153.4 335.349 156.664 335.349 160.84C335.349 162.808 335.013 164.536 334.341 166.024C333.717 167.512 332.925 168.784 331.965 169.84C331.053 170.848 329.853 172.024 328.365 173.368C326.589 174.952 325.293 176.296 324.477 177.4C323.661 178.456 323.253 179.752 323.253 181.288H312.381ZM317.853 199.36C315.885 199.36 314.229 198.736 312.885 197.488C311.589 196.192 310.941 194.632 310.941 192.808C310.941 190.984 311.589 189.472 312.885 188.272C314.181 187.024 315.837 186.4 317.853 186.4C319.869 186.4 321.525 187.024 322.821 188.272C324.117 189.472 324.765 190.984 324.765 192.808C324.765 194.632 324.093 196.192 322.749 197.488C321.453 198.736 319.821 199.36 317.853 199.36Z" fill="#741CDB"/>
<g clip-path="url(#clip0_1798_76371)">
<circle cx="190.162" cy="168.216" r="36.7568" fill="white"/>
<mask id="mask1_1798_76371" style="mask-type:alpha" maskUnits="userSpaceOnUse" x="153" y="131" width="74" height="74">
<circle cx="190.162" cy="168.216" r="36.7568" fill="white"/>
</mask>
<g mask="url(#mask1_1798_76371)">
<circle opacity="0.5" cx="190.162" cy="168.216" r="36.7568" fill="#23C7C6"/>
<path d="M196.389 189.339H186.575H183.558L184.227 191.346L192.047 211.972L199.869 191.346L200.535 189.339H196.389Z" fill="#F7B633"/>
<path d="M201.981 184.061H187.06H180.851V189.528H203.243V184.061H201.981Z" fill="#F7B633"/>
<path d="M185.07 172.769C185.342 172.745 185.617 172.73 185.896 172.73C188.089 172.73 190.106 173.512 191.677 174.811C193.301 173.465 195.328 172.73 197.462 172.73C198.322 172.73 199.155 172.853 199.944 173.078C199.942 172.929 199.94 172.801 199.94 172.73C199.94 168.63 196.604 165.295 192.505 165.295C188.405 165.295 185.07 168.63 185.07 172.73C185.068 172.742 185.07 172.755 185.07 172.769Z" fill="#F2675E"/>
<path d="M180.909 184.301H193.176C194.029 183.061 194.48 181.616 194.48 180.096C194.48 175.997 191.145 172.662 187.045 172.662C182.946 172.662 179.611 175.997 179.611 180.096C179.608 181.613 180.057 183.061 180.909 184.301Z" fill="#FFDD97"/>
<path d="M204.419 180.096C204.419 175.997 201.084 172.662 196.984 172.662C195.294 172.662 193.39 173.326 192.081 174.362C193.409 175.943 194.507 177.876 194.507 180.096C194.507 181.581 194.154 183.012 193.478 184.301H197.737V186.627C197.737 187.281 198.17 187.83 198.766 188.009C198.898 188.048 199.035 188.07 199.18 188.07C199.976 188.07 200.623 187.423 200.623 186.627V184.301H203.118C203.971 183.061 204.419 181.613 204.419 180.096Z" fill="#FFACB2"/>
<path d="M182.122 189.964L182.375 190.728L190.197 211.354L196.676 194.262" stroke="#741CDB" stroke-width="2" stroke-miterlimit="10" stroke-linecap="round" stroke-linejoin="round"/>
<path d="M191.191 188.91H193.037" stroke="#741CDB" stroke-width="2" stroke-miterlimit="10" stroke-linecap="round" stroke-linejoin="round"/>
<path d="M185.21 183.443H179V188.91H188.292" stroke="#741CDB" stroke-width="2" stroke-miterlimit="10" stroke-linecap="round" stroke-linejoin="round"/>
<path d="M195.654 166.614C194.333 165.41 192.578 164.678 190.655 164.678C187.381 164.678 184.595 166.802 183.605 169.748M197.457 169.111C197.32 168.799 197.161 168.498 196.982 168.211" stroke="#741CDB" stroke-width="2" stroke-miterlimit="10" stroke-linecap="round" stroke-linejoin="round"/>
<path d="M186.472 172.154C186.055 172.081 185.626 172.044 185.19 172.044C181.649 172.044 178.679 174.531 177.934 177.852M177.785 180.148C177.812 180.444 177.856 180.738 177.915 181.025L177.785 180.148Z" stroke="#741CDB" stroke-width="2" stroke-miterlimit="10" stroke-linecap="round" stroke-linejoin="round"/>
<path d="M190.228 173.745C191.556 175.325 192.654 177.259 192.654 179.479C192.654 180.964 192.301 182.395 191.625 183.684H195.884V186.009C195.884 186.663 196.318 187.212 196.913 187.391C197.045 187.43 197.183 187.452 197.327 187.452C198.124 187.452 198.771 186.806 198.771 186.009V183.684H201.265C201.535 183.292 201.765 182.877 201.951 182.449" stroke="#741CDB" stroke-width="2" stroke-miterlimit="10" stroke-linecap="round" stroke-linejoin="round"/>
<path d="M201.954 182.449C202.358 181.52 202.569 180.518 202.569 179.479C202.569 175.379 199.234 172.044 195.134 172.044C193.443 172.044 191.539 172.708 190.231 173.745" stroke="#741CDB" stroke-width="2" stroke-miterlimit="10" stroke-linecap="round" stroke-linejoin="round"/>
<path d="M178.156 154.158C177.446 154.158 176.791 154.028 176.191 153.768C175.601 153.498 175.116 153.118 174.736 152.628L176.086 151.008C176.656 151.778 177.306 152.163 178.036 152.163C179.026 152.163 179.521 151.583 179.521 150.423V145.428H175.831V143.478H181.936V150.288C181.936 151.578 181.616 152.548 180.976 153.198C180.336 153.838 179.396 154.158 178.156 154.158ZM189.001 154.158C187.501 154.158 186.331 153.743 185.491 152.913C184.661 152.083 184.246 150.898 184.246 149.358V143.478H186.676V149.268C186.676 151.148 187.456 152.088 189.016 152.088C189.776 152.088 190.356 151.863 190.756 151.413C191.156 150.953 191.356 150.238 191.356 149.268V143.478H193.756V149.358C193.756 150.898 193.336 152.083 192.496 152.913C191.666 153.743 190.501 154.158 189.001 154.158ZM205.788 143.478V153.978H203.793L198.558 147.603V153.978H196.158V143.478H198.168L203.388 149.853V143.478H205.788Z" fill="#741CDB"/>
</g>
</g>
<g clip-path="url(#clip1_1798_76371)">
<circle cx="109.297" cy="103.892" r="27.5676" fill="white"/>
<circle cx="109.297" cy="103.892" r="27.5676" fill="#FFACB2"/>
<path d="M103.44 91.1665L103.429 86.5465L101.163 90.3525H100.36L98.1048 86.6455V91.1665H96.4328V83.4665H97.9068L100.789 88.2515L103.627 83.4665H105.09L105.112 91.1665H103.44ZM112.01 89.5165H108.435L107.753 91.1665H105.927L109.359 83.4665H111.119L114.562 91.1665H112.692L112.01 89.5165ZM111.449 88.1635L110.228 85.2155L109.007 88.1635H111.449ZM120.267 91.1665L118.782 89.0215H118.694H117.143V91.1665H115.361V83.4665H118.694C119.376 83.4665 119.966 83.5802 120.465 83.8075C120.971 84.0348 121.359 84.3575 121.631 84.7755C121.902 85.1935 122.038 85.6885 122.038 86.2605C122.038 86.8325 121.898 87.3275 121.62 87.7455C121.348 88.1562 120.96 88.4715 120.454 88.6915L122.181 91.1665H120.267ZM120.234 86.2605C120.234 85.8278 120.094 85.4978 119.816 85.2705C119.537 85.0358 119.13 84.9185 118.595 84.9185H117.143V87.6025H118.595C119.13 87.6025 119.537 87.4852 119.816 87.2505C120.094 87.0158 120.234 86.6858 120.234 86.2605Z" fill="#741CDB"/>
<path d="M118.034 101.647C117.045 101.103 115.461 100.384 113.394 100.046C112.372 99.881 110.443 99.6804 108.097 100.171C104.494 100.926 101.346 102.996 99.2296 105.995C99.0703 106.223 99.0517 106.521 99.18 106.765C99.3103 107.011 99.5668 107.162 99.8439 107.158C100.913 107.141 101.962 107.429 102.876 107.993C104.15 108.779 105.044 110.012 105.394 111.468C105.478 111.818 105.801 112.056 106.161 112.033C106.984 111.979 107.348 111.963 108.302 112.139C109.477 112.356 110.236 112.635 111.08 113.076C111.613 113.355 112.033 113.638 112.329 113.859C112.825 114.228 113.458 114.774 114.067 115.541C114.702 116.34 115.097 117.111 115.341 117.694C115.343 117.701 115.345 117.705 115.347 117.711L115.353 117.725C115.415 117.864 115.516 117.974 115.639 118.05C115.81 118.156 116.023 118.191 116.228 118.131C117.68 117.794 119.176 118.038 120.446 118.822C121.354 119.382 122.082 120.183 122.545 121.136C122.667 121.387 122.917 121.546 123.195 121.55C123.472 121.554 123.728 121.403 123.858 121.159C125.584 117.922 126.014 114.18 125.066 110.624C124.456 108.335 123.424 106.713 122.812 105.865C122.305 105.164 121.161 103.714 119.281 102.419C118.793 102.078 118.356 101.823 118.034 101.647Z" fill="#9BE6BC"/>
<path d="M118.381 101.466L118.886 100.646C119.099 100.299 118.992 99.8439 118.644 99.6308C118.297 99.4178 117.842 99.5253 117.628 99.8728L117.124 100.692" fill="#F79351"/>
<path d="M118.185 101.464L118.69 100.645C118.903 100.297 118.795 99.842 118.448 99.6289" stroke="#741CDB" stroke-width="2" stroke-miterlimit="10" stroke-linecap="round" stroke-linejoin="round"/>
<path d="M104.959 99.7964C102.21 100.804 99.8316 102.618 98.1251 105.04C97.9659 105.267 97.9472 105.565 98.0755 105.809C98.2058 106.055 98.4623 106.206 98.7395 106.202C99.8088 106.186 100.858 106.473 101.772 107.038C103.046 107.824 103.94 109.057 104.289 110.513C104.374 110.863 104.697 111.1 105.056 111.078C105.88 111.024 106.244 111.007 107.197 111.183C108.372 111.4 109.131 111.68 109.975 112.12C110.509 112.399 110.929 112.683 111.225 112.904C111.721 113.272 112.354 113.818 112.962 114.586C113.473 115.229 113.829 115.856 114.077 116.379M120.967 119.374C121.149 119.626 121.308 119.895 121.447 120.179C121.569 120.429 121.819 120.588 122.096 120.592C122.373 120.597 122.63 120.446 122.76 120.202C124.485 116.964 124.916 113.223 123.968 109.667C123.358 107.377 122.326 105.756 121.714 104.908C121.207 104.206 120.063 102.756 118.183 101.461C117.686 101.12 117.248 100.864 116.927 100.688C115.939 100.144 114.354 99.4241 112.288 99.0869C111.779 99.0042 111.043 98.9132 110.143 98.9028M108.052 99.0331C107.822 99.0642 107.586 99.1014 107.344 99.1448L108.052 99.0331Z" stroke="#741CDB" stroke-width="2" stroke-miterlimit="10" stroke-linecap="round" stroke-linejoin="round"/>
<path d="M117.589 112.259C117.471 112.557 117.347 112.852 117.217 113.152" stroke="#741CDB" stroke-width="2" stroke-miterlimit="10" stroke-linecap="round" stroke-linejoin="round"/>
<path d="M104.384 110.383C104.419 110.341 104.453 110.294 104.488 110.238C106.529 106.922 109.053 104.186 111.591 102.527C113.899 101.017 115.982 100.593 117.308 101.36C117.329 101.37 117.347 101.383 117.368 101.395C117.386 101.408 117.407 101.42 117.426 101.43C118.708 102.268 119.265 104.32 118.956 107.061C118.828 108.203 118.559 109.413 118.164 110.656" stroke="#741CDB" stroke-width="2" stroke-miterlimit="10" stroke-linecap="round" stroke-linejoin="round"/>
<path d="M109.603 114.197L104.635 122.26C104.397 122.646 104.02 122.917 103.578 123.023C103.135 123.128 102.678 123.056 102.291 122.816C101.904 122.578 101.633 122.204 101.528 121.759C101.422 121.316 101.497 120.859 101.735 120.472" stroke="#741CDB" stroke-width="2" stroke-miterlimit="10" stroke-linecap="round" stroke-linejoin="round"/>
</g>
<g clip-path="url(#clip2_1798_76371)">
<circle cx="407.027" cy="101.134" r="45.9459" fill="white"/>
<circle cx="407.027" cy="101.134" r="45.9459" fill="#FFDD97"/>
<path d="M395.416 82.4393C394.232 82.4393 393.166 82.1887 392.216 81.6873C391.278 81.186 390.536 80.4927 389.992 79.6073C389.459 78.722 389.192 77.7247 389.192 76.6153C389.192 75.506 389.459 74.5087 389.992 73.6233C390.536 72.738 391.278 72.0447 392.216 71.5433C393.166 71.042 394.232 70.7913 395.416 70.7913C396.6 70.7913 397.662 71.042 398.6 71.5433C399.55 72.0447 400.291 72.738 400.824 73.6233C401.368 74.5087 401.64 75.506 401.64 76.6153C401.64 77.7247 401.368 78.722 400.824 79.6073C400.291 80.4927 399.55 81.186 398.6 81.6873C397.662 82.1887 396.6 82.4393 395.416 82.4393ZM395.416 79.8153C395.982 79.8153 396.494 79.682 396.952 79.4153C397.411 79.1487 397.774 78.7753 398.04 78.2953C398.307 77.8047 398.44 77.2447 398.44 76.6153C398.44 75.986 398.307 75.4313 398.04 74.9513C397.774 74.4607 397.411 74.082 396.952 73.8153C396.494 73.5487 395.982 73.4153 395.416 73.4153C394.851 73.4153 394.339 73.5487 393.88 73.8153C393.422 74.082 393.059 74.4607 392.792 74.9513C392.526 75.4313 392.392 75.986 392.392 76.6153C392.392 77.2447 392.526 77.8047 392.792 78.2953C393.059 78.7753 393.422 79.1487 393.88 79.4153C394.339 79.682 394.851 79.8153 395.416 79.8153ZM408.884 82.4393C407.71 82.4393 406.654 82.194 405.716 81.7033C404.788 81.202 404.057 80.5087 403.524 79.6233C402.99 78.738 402.724 77.7353 402.724 76.6153C402.724 75.4953 402.99 74.4927 403.524 73.6073C404.057 72.722 404.788 72.034 405.716 71.5433C406.654 71.042 407.71 70.7913 408.884 70.7913C409.908 70.7913 410.83 70.9727 411.652 71.3353C412.473 71.698 413.156 72.2207 413.7 72.9033L411.684 74.7273C410.958 73.8527 410.078 73.4153 409.044 73.4153C408.436 73.4153 407.892 73.5487 407.412 73.8153C406.942 74.082 406.574 74.4607 406.308 74.9513C406.052 75.4313 405.924 75.986 405.924 76.6153C405.924 77.2447 406.052 77.8047 406.308 78.2953C406.574 78.7753 406.942 79.1487 407.412 79.4153C407.892 79.682 408.436 79.8153 409.044 79.8153C410.078 79.8153 410.958 79.378 411.684 78.5033L413.7 80.3273C413.156 81.01 412.473 81.5327 411.652 81.8953C410.83 82.258 409.908 82.4393 408.884 82.4393ZM417.402 73.5273H413.962V71.0153H423.994V73.5273H420.57V82.2153H417.402V73.5273Z" fill="#741CDB"/>
<path d="M433.918 109.201L430.226 114.103C429.527 115.032 429.652 116.373 430.511 117.153L432.744 119.178L422.313 123.544C422.062 123.635 421.841 123.805 421.69 124.038C421.433 124.428 421.415 124.93 421.645 125.339L423.333 128.365L410.642 131.345H408.127L395.433 128.365L397.122 125.339C397.403 124.836 397.306 124.21 396.892 123.814C396.774 123.699 396.635 123.614 396.486 123.553L386.028 119.175L388.262 117.15C389.121 116.37 389.245 115.032 388.546 114.1L384.854 109.198L390.725 109.407C391.914 109.449 392.907 108.538 392.994 107.331L393.179 104.798L400.78 111.749C401.237 112.167 401.93 112.191 402.414 111.803C402.808 111.489 402.968 110.974 402.844 110.505L399.561 96.9426L403.104 98.4738C404.197 98.9458 405.483 98.4314 405.967 97.3299L409.386 89.5894L412.806 97.3299C413.293 98.4344 414.576 98.9489 415.668 98.4738L419.212 96.9426L415.932 110.493C415.817 110.923 415.932 111.398 416.27 111.725C416.749 112.188 417.502 112.2 417.992 111.749L425.594 104.804L425.778 107.337C425.866 108.544 426.865 109.455 428.048 109.413L433.918 109.201Z" fill="#F79351"/>
<path d="M405.032 93.8106L405.513 92.7183" stroke="#741CDB" stroke-width="2" stroke-miterlimit="10" stroke-linecap="round" stroke-linejoin="round"/>
<path d="M401.092 127.754L393.957 126.077L395.645 123.051C395.927 122.549 395.83 121.922 395.415 121.526C395.297 121.411 395.158 121.326 395.01 121.266L384.552 116.887L386.785 114.863C387.644 114.082 387.768 112.745 387.069 111.813L383.378 106.91L389.248 107.119C390.437 107.162 391.43 106.251 391.518 105.043L391.702 102.511L399.301 109.455C399.758 109.873 400.451 109.897 400.935 109.51C401.328 109.195 401.488 108.681 401.364 108.212L398.081 94.6489L401.625 96.1801C401.715 96.2194 401.806 96.2527 401.9 96.2769" stroke="#741CDB" stroke-width="2" stroke-miterlimit="10" stroke-linecap="round" stroke-linejoin="round"/>
<path d="M407.991 106.662V136.005" stroke="#741CDB" stroke-width="2" stroke-miterlimit="10" stroke-linecap="round" stroke-linejoin="round"/>
<path d="M426.892 118.721L420.837 121.257C420.586 121.348 420.365 121.517 420.213 121.75C419.956 122.141 419.938 122.643 420.168 123.051L421.857 126.077L411.023 128.622" stroke="#741CDB" stroke-width="2" stroke-miterlimit="10" stroke-linecap="round" stroke-linejoin="round"/>
<path d="M418.652 115.992L408.136 123.415" stroke="#741CDB" stroke-width="2" stroke-miterlimit="10" stroke-linecap="round" stroke-linejoin="round"/>
<path d="M400.338 118.234L407.68 123.414" stroke="#741CDB" stroke-width="2" stroke-miterlimit="10" stroke-linecap="round" stroke-linejoin="round"/>
<path d="M397.164 115.992L397.984 116.57" stroke="#741CDB" stroke-width="2" stroke-miterlimit="10" stroke-linecap="round" stroke-linejoin="round"/>
<path d="M407.91 87.3018L411.329 95.0423C411.816 96.1468 413.099 96.6613 414.192 96.1862L417.735 94.655L414.455 108.206C414.34 108.635 414.455 109.11 414.794 109.437C415.272 109.9 416.025 109.912 416.516 109.461L424.114 102.517L424.299 105.049C424.386 106.257 425.385 107.168 426.568 107.125L432.236 106.923" stroke="#741CDB" stroke-width="2" stroke-miterlimit="10" stroke-linecap="round" stroke-linejoin="round"/>
<path d="M431.028 116.99L430.121 117.372" stroke="#741CDB" stroke-width="2" stroke-miterlimit="10" stroke-linecap="round" stroke-linejoin="round"/>
</g>
<circle cx="194.757" cy="67.135" r="7.35135" fill="#F79351"/>
<circle cx="192" cy="63.4593" r="7.35135" stroke="#741CDB" stroke-width="3"/>
<circle cx="89.081" cy="163.622" r="11.027" fill="#3DC876"/>
<circle cx="86.3241" cy="159.946" r="11.027" stroke="#741CDB" stroke-width="3"/>
<circle cx="481.459" cy="108.486" r="1" stroke="#741CDB" stroke-width="1.67568"/>
<circle cx="456.649" cy="63.4594" r="1.75676" stroke="#741CDB" stroke-width="2"/>
<circle cx="140.54" cy="58.8647" r="1" stroke="#741CDB" stroke-width="1.67568"/>
<circle cx="69.7836" cy="130.54" r="1.75676" stroke="#741CDB" stroke-width="2"/>
<circle opacity="0.8" cx="466.757" cy="159.027" r="13.7838" fill="#23C7C6"/>
<circle cx="464" cy="155.352" r="14.7027" stroke="#741CDB" stroke-width="3"/>
<path d="M466.715 157.928C467.815 158.098 468.653 158.489 469.231 159.101C469.821 159.702 470.115 160.456 470.115 161.362C470.115 162.054 469.928 162.694 469.554 163.283C469.18 163.861 468.608 164.326 467.837 164.677C467.078 165.029 466.137 165.204 465.015 165.204C464.052 165.204 463.145 165.085 462.295 164.847C461.445 164.609 460.748 164.281 460.204 163.861L461.343 161.753C462.375 162.513 463.582 162.892 464.964 162.892C465.724 162.892 466.307 162.762 466.715 162.501C467.135 162.229 467.344 161.85 467.344 161.362C467.344 160.898 467.146 160.541 466.749 160.291C466.364 160.031 465.775 159.9 464.981 159.9H463.638V158.081L466.239 155.31H460.663V153.1H469.571V154.885L466.715 157.928Z" fill="#741CDB"/>
<circle cx="276.54" cy="58.8652" r="18.3784" fill="#9BE6BC"/>
<circle cx="275.621" cy="56.1083" r="20.2162" stroke="#741CDB" stroke-width="3"/>
<path d="M274.494 60.66V63H266.052V60.66H268.986V52.74H266.286V50.4H271.92V60.66H274.494ZM286.421 60.624V63H276.719V61.11L281.687 56.52C282.215 56.028 282.575 55.602 282.767 55.242C282.959 54.882 283.055 54.522 283.055 54.162C283.055 53.682 282.869 53.31 282.497 53.046C282.137 52.77 281.621 52.632 280.949 52.632C279.713 52.632 278.783 53.052 278.159 53.892L276.071 52.524C276.563 51.792 277.247 51.222 278.123 50.814C278.999 50.394 280.019 50.184 281.183 50.184C282.143 50.184 282.983 50.34 283.703 50.652C284.435 50.952 284.999 51.384 285.395 51.948C285.791 52.5 285.989 53.154 285.989 53.91C285.989 54.57 285.833 55.2 285.521 55.8C285.209 56.4 284.627 57.096 283.775 57.888L280.823 60.624H286.421Z" fill="#741CDB"/>
</g>
<defs>
<clipPath id="clip0_1798_76371">
<rect width="73.5135" height="73.5135" fill="white" transform="translate(153.405 131.459)"/>
</clipPath>
<clipPath id="clip1_1798_76371">
<rect width="55.1351" height="55.1351" fill="white" transform="translate(81.7295 76.3242)"/>
</clipPath>
<clipPath id="clip2_1798_76371">
<rect width="91.8919" height="91.8919" fill="white" transform="translate(361.081 55.1885)"/>
</clipPath>
</defs>
</svg>
