<svg width="555" height="296" viewBox="0 0 555 296" fill="none" xmlns="http://www.w3.org/2000/svg">
<path d="M33.3924 86.7325C-13.7738 144.612 87.4911 269.462 300.506 283.384C317.805 284.514 334 284.061 349.135 282.255C520.366 261.823 555.871 68.2434 518.592 36.2645C472.946 -3.76189 103.3 0.946716 33.3924 86.7325Z" fill="#9F5DF1"/>
<mask id="mask0_1798_76464" style="mask-type:alpha" maskUnits="userSpaceOnUse" x="35" y="15" width="490" height="255">
<path d="M302.748 268.723C506.935 281.704 550.69 70.7546 511.797 38.3008C468.042 0.978888 113.715 5.36934 46.7044 85.3588C1.49274 139.327 98.5612 255.741 302.748 268.723Z" fill="white"/>
</mask>
<g mask="url(#mask0_1798_76464)">
<mask id="path-3-inside-1_1798_76464" fill="white">
<path d="M-8.32422 10.1621H524.649V298.703H-8.32422V10.1621Z"/>
</mask>
<path d="M-8.32422 10.1621H524.649V298.703H-8.32422V10.1621Z" fill="#F4ECFF" stroke="#A6EDEC" stroke-width="2" mask="url(#path-3-inside-1_1798_76464)"/>
<circle opacity="0.3" cx="317.892" cy="168.216" r="128.649" fill="#C1A1F1"/>
<circle opacity="0.4" cx="317.892" cy="168.216" r="110.27" fill="#9F5DF1"/>
<rect x="210.43" y="64.1875" width="250.865" height="161.73" rx="16" transform="rotate(10 210.43 64.1875)" fill="white"/>
<path d="M205 71.0293C207.875 64.3873 215.02 60.3309 222.46 61.6427L437.999 99.6482C446.702 101.183 452.512 109.481 450.978 118.184L430.5 234.319M187.988 165L181.397 202.38C179.862 211.082 185.673 219.381 194.375 220.915L384.5 254.44" stroke="#741CDB" stroke-width="3" stroke-linecap="round"/>
<rect x="207.625" y="185.928" width="214.108" height="0.918919" transform="rotate(10 207.625 185.928)" fill="#C1A1F1"/>
<rect x="212.253" y="159.685" width="214.108" height="0.918919" transform="rotate(10 212.253 159.685)" fill="#C1A1F1"/>
<rect x="216.88" y="133.441" width="214.108" height="0.918919" transform="rotate(10 216.88 133.441)" fill="#C1A1F1"/>
<rect x="221.508" y="107.197" width="214.108" height="0.918919" transform="rotate(10 221.508 107.197)" fill="#C1A1F1"/>
<rect x="402.709" y="116.754" width="0.918919" height="124.973" transform="rotate(10 402.709 116.754)" fill="#C1A1F1"/>
<rect x="372.845" y="111.488" width="0.918919" height="124.973" transform="rotate(10 372.845 111.488)" fill="#C1A1F1"/>
<rect x="342.982" y="106.222" width="0.918919" height="124.973" transform="rotate(10 342.982 106.222)" fill="#C1A1F1"/>
<rect x="313.118" y="100.956" width="0.918919" height="124.973" transform="rotate(10 313.118 100.956)" fill="#C1A1F1"/>
<rect x="283.255" y="95.6904" width="0.918919" height="124.973" transform="rotate(10 283.255 95.6904)" fill="#C1A1F1"/>
<rect x="253.391" y="90.4248" width="0.918919" height="124.973" transform="rotate(10 253.391 90.4248)" fill="#C1A1F1"/>
<rect x="243.288" y="168.889" width="114.865" height="18.3784" transform="rotate(10 243.288 168.889)" fill="#9F5DF1"/>
<rect x="329.259" y="184.048" width="0.918919" height="18.3784" transform="rotate(10 329.259 184.048)" fill="#741CDB"/>
<rect x="299.396" y="178.782" width="0.918919" height="18.3784" transform="rotate(10 299.396 178.782)" fill="#741CDB"/>
<rect x="269.532" y="173.517" width="0.918919" height="18.3784" transform="rotate(10 269.532 173.517)" fill="#741CDB"/>
<path d="M400.213 235.842L400.032 236.87L393.922 235.792L394.064 234.989L398.123 232.354C398.618 232.035 398.965 231.747 399.165 231.489C399.366 231.224 399.492 230.946 399.544 230.655C399.619 230.229 399.516 229.866 399.236 229.565C398.956 229.263 398.513 229.059 397.906 228.952C396.937 228.781 396.145 228.946 395.528 229.447L394.845 228.62C395.255 228.278 395.747 228.048 396.32 227.929C396.902 227.805 397.524 227.801 398.186 227.917C399.1 228.078 399.784 228.414 400.238 228.925C400.701 229.437 400.87 230.044 400.746 230.745C400.67 231.178 400.494 231.574 400.22 231.931C399.954 232.291 399.5 232.678 398.858 233.092L395.829 235.068L400.213 235.842Z" fill="#8D8D8D"/>
<path d="M370.184 230.547L370.002 231.575L364.72 230.643L364.901 229.615L367.064 229.997L368.16 223.781L366.127 223.422L366.309 222.394L369.523 222.961L368.246 230.205L370.184 230.547Z" fill="#8D8D8D"/>
<path d="M334.81 220.361C335.58 220.602 336.14 220.973 336.491 221.474C336.85 221.968 336.974 222.534 336.861 223.172C336.777 223.653 336.573 224.068 336.252 224.417C335.93 224.767 335.493 225.014 334.939 225.16C334.386 225.299 333.74 225.302 332.999 225.172C332.338 225.055 331.738 224.864 331.2 224.599C330.671 224.327 330.244 224.004 329.92 223.63L330.866 222.553C331.46 223.235 332.246 223.662 333.223 223.834C333.806 223.937 334.282 223.907 334.652 223.745C335.031 223.576 335.255 223.299 335.323 222.913C335.39 222.535 335.277 222.206 334.985 221.927C334.693 221.648 334.232 221.453 333.602 221.342L332.81 221.203L332.995 220.151L335.398 218.271L331.274 217.544L331.501 216.256L337.54 217.321L337.358 218.349L334.81 220.361ZM341.293 226.634C340.607 226.513 340.026 226.236 339.55 225.803C339.084 225.363 338.757 224.798 338.57 224.107C338.392 223.409 338.38 222.627 338.533 221.761C338.686 220.894 338.964 220.167 339.368 219.581C339.781 218.987 340.282 218.568 340.869 218.322C341.466 218.07 342.107 218.004 342.793 218.125C343.478 218.246 344.054 218.526 344.521 218.966C344.997 219.399 345.324 219.965 345.501 220.662C345.688 221.353 345.705 222.132 345.553 222.999C345.4 223.865 345.117 224.595 344.703 225.188C344.299 225.775 343.799 226.195 343.202 226.447C342.614 226.692 341.978 226.755 341.293 226.634ZM341.528 225.299C342.119 225.403 342.635 225.238 343.077 224.804C343.529 224.364 343.838 223.671 344.004 222.726C344.171 221.78 344.117 221.027 343.842 220.467C343.576 219.9 343.148 219.565 342.557 219.461C341.966 219.357 341.445 219.525 340.994 219.965C340.552 220.399 340.248 221.088 340.081 222.034C339.914 222.979 339.964 223.735 340.229 224.302C340.504 224.862 340.937 225.194 341.528 225.299Z" fill="#333333"/>
<path d="M306.73 219.078L306.501 220.378L300.261 219.278L300.442 218.25L304.384 215.728C304.833 215.441 305.147 215.18 305.327 214.944C305.507 214.707 305.62 214.455 305.667 214.187C305.734 213.809 305.644 213.493 305.396 213.238C305.158 212.976 304.775 212.799 304.247 212.706C303.357 212.549 302.624 212.717 302.05 213.208L301.121 212.192C301.528 211.817 302.036 211.561 302.645 211.425C303.255 211.28 303.911 211.27 304.612 211.394C305.227 211.502 305.745 211.695 306.167 211.973C306.599 212.244 306.905 212.582 307.085 212.987C307.275 213.386 307.327 213.826 307.242 214.307C307.166 214.74 306.99 215.14 306.714 215.505C306.448 215.864 305.99 216.251 305.34 216.664L302.7 218.368L306.73 219.078ZM312.622 212.806C313.78 213.01 314.619 213.524 315.141 214.347C315.669 215.171 315.818 216.241 315.586 217.557C315.433 218.424 315.12 219.16 314.648 219.768C314.184 220.368 313.593 220.796 312.874 221.051C312.163 221.307 311.37 221.359 310.495 221.204C310.085 221.132 309.696 221.015 309.327 220.852C308.957 220.689 308.653 220.502 308.414 220.289L309.192 219.196C309.558 219.561 310.068 219.801 310.722 219.916C311.565 220.065 312.287 219.936 312.886 219.53C313.487 219.116 313.868 218.456 314.027 217.55L314.04 217.479C313.752 217.729 313.381 217.899 312.926 217.99C312.48 218.081 312 218.082 311.488 217.992C310.921 217.892 310.431 217.696 310.02 217.404C309.608 217.112 309.307 216.75 309.115 216.318C308.931 215.888 308.882 215.424 308.97 214.928C309.063 214.4 309.279 213.959 309.618 213.604C309.965 213.243 310.399 212.995 310.919 212.859C311.447 212.717 312.015 212.699 312.622 212.806ZM312.008 216.841C312.52 216.931 312.964 216.875 313.341 216.674C313.726 216.473 313.955 216.165 314.028 215.747C314.072 215.503 314.037 215.261 313.925 215.022C313.822 214.776 313.644 214.566 313.39 214.392C313.138 214.209 312.827 214.085 312.457 214.02C311.968 213.934 311.539 213.992 311.171 214.195C310.81 214.4 310.592 214.711 310.519 215.128C310.445 215.546 310.543 215.912 310.812 216.228C311.089 216.545 311.488 216.749 312.008 216.841Z" fill="#333333"/>
<path d="M276.867 213.812L276.637 215.112L270.398 214.012L270.579 212.984L274.521 210.462C274.969 210.175 275.283 209.914 275.463 209.678C275.643 209.441 275.757 209.189 275.804 208.921C275.87 208.543 275.78 208.227 275.532 207.972C275.294 207.71 274.911 207.533 274.383 207.44C273.493 207.283 272.761 207.451 272.187 207.942L271.257 206.925C271.665 206.55 272.173 206.295 272.782 206.158C273.392 206.014 274.048 206.004 274.749 206.128C275.363 206.236 275.882 206.429 276.304 206.706C276.735 206.977 277.041 207.316 277.222 207.721C277.411 208.12 277.464 208.56 277.379 209.041C277.303 209.474 277.126 209.873 276.851 210.239C276.584 210.598 276.126 210.985 275.477 211.398L272.837 213.102L276.867 213.812ZM284.48 212.011C284.894 212.287 285.19 212.615 285.367 212.996C285.545 213.368 285.594 213.779 285.515 214.228C285.426 214.732 285.202 215.148 284.844 215.475C284.486 215.801 284.021 216.02 283.449 216.13C282.886 216.234 282.255 216.224 281.553 216.101C280.852 215.977 280.255 215.77 279.762 215.48C279.27 215.182 278.912 214.819 278.687 214.389C278.47 213.961 278.406 213.495 278.495 212.99C278.574 212.541 278.761 212.172 279.056 211.883C279.352 211.586 279.738 211.378 280.214 211.259C279.891 211.015 279.665 210.731 279.535 210.408C279.407 210.076 279.377 209.718 279.445 209.332C279.527 208.867 279.732 208.485 280.061 208.185C280.39 207.886 280.812 207.684 281.326 207.58C281.84 207.475 282.416 207.479 283.054 207.592C283.692 207.705 284.239 207.898 284.694 208.174C285.149 208.449 285.48 208.783 285.686 209.177C285.893 209.571 285.956 210 285.874 210.465C285.806 210.851 285.651 211.173 285.411 211.432C285.178 211.691 284.868 211.884 284.48 212.011ZM282.841 208.797C282.329 208.707 281.901 208.741 281.556 208.9C281.212 209.05 281.009 209.307 280.945 209.669C280.882 210.024 280.982 210.334 281.244 210.599C281.515 210.858 281.911 211.034 282.431 211.125C282.959 211.219 283.394 211.19 283.738 211.039C284.082 210.881 284.286 210.624 284.348 210.269C284.412 209.907 284.305 209.596 284.026 209.335C283.748 209.067 283.353 208.888 282.841 208.797ZM281.766 214.895C282.38 215.004 282.882 214.97 283.27 214.795C283.666 214.621 283.901 214.325 283.975 213.908C284.047 213.498 283.927 213.144 283.614 212.845C283.301 212.546 282.841 212.343 282.235 212.236C281.62 212.128 281.119 212.161 280.731 212.337C280.35 212.513 280.124 212.806 280.051 213.216C279.978 213.634 280.09 213.99 280.387 214.287C280.692 214.584 281.151 214.787 281.766 214.895Z" fill="#333333"/>
<path d="M247.003 208.546L246.774 209.846L240.534 208.746L240.715 207.718L244.657 205.196C245.106 204.91 245.42 204.648 245.599 204.412C245.779 204.176 245.893 203.923 245.94 203.656C246.007 203.277 245.916 202.961 245.669 202.706C245.43 202.445 245.047 202.268 244.52 202.174C243.629 202.017 242.897 202.185 242.323 202.677L241.393 201.66C241.801 201.285 242.309 201.029 242.918 200.893C243.528 200.749 244.184 200.738 244.885 200.862C245.5 200.97 246.018 201.163 246.44 201.441C246.872 201.712 247.178 202.05 247.358 202.456C247.547 202.855 247.6 203.294 247.515 203.775C247.439 204.208 247.263 204.608 246.987 204.973C246.721 205.333 246.263 205.719 245.613 206.132L242.973 207.836L247.003 208.546ZM256.62 203.053L256.439 204.081L251.663 210.709L250.044 210.423L254.618 204.04L251.037 203.409L250.789 204.815L249.359 204.563L249.837 201.857L256.62 203.053Z" fill="#333333"/>
<path d="M217.139 203.28L216.91 204.58L210.67 203.48L210.852 202.452L214.794 199.93C215.242 199.644 215.556 199.382 215.736 199.146C215.916 198.909 216.029 198.657 216.077 198.389C216.143 198.011 216.053 197.695 215.805 197.44C215.567 197.179 215.184 197.001 214.656 196.908C213.766 196.751 213.034 196.919 212.46 197.411L211.53 196.394C211.937 196.019 212.445 195.763 213.054 195.627C213.665 195.483 214.32 195.472 215.022 195.596C215.636 195.704 216.155 195.897 216.577 196.175C217.008 196.446 217.314 196.784 217.494 197.189C217.684 197.588 217.737 198.028 217.652 198.509C217.575 198.942 217.399 199.342 217.124 199.707C216.857 200.067 216.399 200.453 215.749 200.866L213.11 202.57L217.139 203.28ZM223.279 200.439C223.846 200.539 224.336 200.735 224.747 201.027C225.159 201.319 225.457 201.68 225.641 202.111C225.833 202.543 225.885 203.007 225.797 203.503C225.704 204.031 225.484 204.475 225.136 204.837C224.797 205.191 224.363 205.44 223.834 205.582C223.315 205.718 222.752 205.732 222.145 205.625C220.987 205.421 220.144 204.907 219.615 204.082C219.094 203.259 218.949 202.19 219.181 200.874C219.334 200.008 219.642 199.274 220.105 198.673C220.578 198.066 221.17 197.635 221.881 197.378C222.601 197.123 223.397 197.073 224.272 197.227C224.682 197.299 225.071 197.417 225.441 197.579C225.811 197.734 226.119 197.922 226.364 198.144L225.575 199.236C225.209 198.871 224.699 198.63 224.045 198.515C223.202 198.366 222.48 198.499 221.879 198.913C221.279 199.319 220.9 199.975 220.74 200.881L220.727 200.952C221.015 200.702 221.382 200.531 221.829 200.44C222.284 200.349 222.767 200.349 223.279 200.439ZM222.311 204.412C222.799 204.498 223.224 204.438 223.585 204.234C223.954 204.031 224.175 203.721 224.248 203.303C224.322 202.886 224.22 202.518 223.943 202.201C223.674 201.886 223.279 201.682 222.759 201.591C222.247 201.5 221.799 201.555 221.414 201.755C221.037 201.957 220.812 202.267 220.739 202.684C220.696 202.929 220.725 203.173 220.828 203.419C220.941 203.658 221.123 203.869 221.375 204.052C221.628 204.226 221.94 204.346 222.311 204.412Z" fill="#333333"/>
<path d="M400.789 209.536L400.56 210.836L394.32 209.736L394.501 208.708L398.443 206.186C398.892 205.9 399.206 205.638 399.386 205.402C399.565 205.165 399.679 204.913 399.726 204.645C399.793 204.267 399.702 203.951 399.455 203.696C399.217 203.434 398.834 203.257 398.306 203.164C397.415 203.007 396.683 203.175 396.109 203.666L395.18 202.65C395.587 202.275 396.095 202.019 396.704 201.883C397.314 201.738 397.97 201.728 398.671 201.852C399.286 201.96 399.804 202.153 400.226 202.431C400.658 202.702 400.964 203.04 401.144 203.445C401.334 203.844 401.386 204.284 401.301 204.765C401.225 205.198 401.049 205.598 400.773 205.963C400.507 206.322 400.049 206.709 399.399 207.122L396.759 208.826L400.789 209.536ZM405.941 206.558C407.186 206.777 408.06 207.167 408.562 207.727C409.074 208.28 409.261 208.946 409.124 209.726C409.036 210.223 408.831 210.65 408.508 211.007C408.185 211.364 407.747 211.616 407.193 211.762C406.647 211.909 406 211.917 405.251 211.785C404.637 211.677 404.053 211.489 403.499 211.22C402.954 210.946 402.515 210.625 402.182 210.257L403.042 209.178C403.321 209.487 403.676 209.757 404.106 209.987C404.538 210.209 404.998 210.364 405.487 210.45C406.07 210.553 406.542 210.522 406.904 210.359C407.275 210.188 407.496 209.906 407.565 209.513C407.64 209.087 407.515 208.736 407.19 208.459C406.875 208.176 406.283 207.958 405.417 207.806L403.313 207.435L404.544 203.009L409.591 203.899L409.363 205.187L405.605 204.524L405.091 206.408L405.941 206.558Z" fill="#009897"/>
<path d="M370.925 204.271L370.696 205.571L364.456 204.47L364.638 203.442L368.579 200.92C369.028 200.634 369.342 200.372 369.522 200.136C369.702 199.9 369.815 199.648 369.862 199.38C369.929 199.002 369.839 198.685 369.591 198.43C369.353 198.169 368.97 197.992 368.442 197.899C367.552 197.742 366.819 197.909 366.245 198.401L365.316 197.384C365.723 197.009 366.231 196.753 366.84 196.617C367.45 196.473 368.106 196.462 368.807 196.586C369.422 196.694 369.94 196.887 370.363 197.165C370.794 197.436 371.1 197.774 371.28 198.18C371.47 198.579 371.522 199.018 371.438 199.499C371.361 199.932 371.185 200.332 370.909 200.698C370.643 201.057 370.185 201.443 369.535 201.857L366.895 203.56L370.925 204.271ZM379.486 205.183L378.056 204.931L377.725 206.81L376.259 206.551L376.59 204.672L372.372 203.929L372.559 202.865L377.139 198.177L378.805 198.471L374.433 202.952L376.891 203.385L377.172 201.79L378.566 202.036L378.285 203.631L379.715 203.883L379.486 205.183Z" fill="#009897"/>
<path d="M341.19 198.759L340.915 200.319L334.545 199.196L334.764 197.955L338.557 195.517C338.961 195.255 339.247 195.017 339.414 194.803C339.582 194.588 339.687 194.363 339.728 194.127C339.784 193.812 339.705 193.546 339.491 193.33C339.287 193.107 338.964 192.956 338.523 192.879C337.711 192.735 337.052 192.904 336.545 193.383L335.333 192.243C335.741 191.819 336.256 191.524 336.878 191.358C337.502 191.183 338.196 191.164 338.96 191.298C339.59 191.41 340.124 191.609 340.56 191.897C341.006 192.179 341.326 192.528 341.521 192.944C341.717 193.352 341.771 193.805 341.684 194.301C341.607 194.734 341.432 195.13 341.158 195.488C340.883 195.846 340.421 196.235 339.77 196.656L337.515 198.111L341.19 198.759ZM347.593 196.428C348.337 196.68 348.872 197.055 349.199 197.551C349.535 198.041 349.647 198.601 349.536 199.231C349.451 199.712 349.243 200.134 348.911 200.498C348.58 200.854 348.125 201.107 347.546 201.257C346.975 201.408 346.3 201.415 345.52 201.277C344.85 201.159 344.234 200.965 343.673 200.696C343.111 200.426 342.667 200.112 342.34 199.754L343.39 198.428C344.014 199.082 344.807 199.494 345.768 199.664C346.296 199.757 346.717 199.738 347.033 199.607C347.358 199.469 347.55 199.231 347.61 198.892C347.667 198.569 347.573 198.296 347.327 198.074C347.091 197.846 346.698 197.683 346.146 197.586L345.213 197.421L345.436 196.157L347.583 194.549L343.707 193.866L343.978 192.33L350.171 193.421L349.952 194.662L347.593 196.428Z" fill="white"/>
<path d="M311.327 193.494L311.052 195.054L304.682 193.931L304.901 192.69L308.694 190.251C309.097 189.99 309.383 189.752 309.551 189.537C309.718 189.323 309.823 189.098 309.865 188.862C309.92 188.547 309.841 188.281 309.628 188.064C309.423 187.842 309.1 187.691 308.659 187.613C307.848 187.47 307.189 187.638 306.682 188.118L305.469 186.978C305.877 186.554 306.392 186.259 307.014 186.093C307.638 185.918 308.332 185.899 309.096 186.033C309.726 186.144 310.26 186.344 310.697 186.632C311.142 186.914 311.463 187.263 311.657 187.679C311.853 188.087 311.908 188.54 311.82 189.036C311.744 189.469 311.568 189.865 311.294 190.223C311.02 190.58 310.557 190.97 309.906 191.391L307.651 192.846L311.327 193.494ZM319.371 194.912L319.096 196.472L312.727 195.349L312.945 194.108L316.739 191.67C317.142 191.408 317.428 191.17 317.596 190.956C317.763 190.742 317.868 190.517 317.91 190.28C317.965 189.965 317.886 189.699 317.672 189.483C317.468 189.26 317.145 189.11 316.704 189.032C315.893 188.889 315.233 189.057 314.726 189.536L313.514 188.396C313.922 187.973 314.437 187.678 315.059 187.511C315.683 187.337 316.377 187.317 317.141 187.452C317.771 187.563 318.305 187.763 318.741 188.051C319.187 188.333 319.508 188.681 319.702 189.098C319.898 189.506 319.953 189.958 319.865 190.454C319.789 190.888 319.613 191.283 319.339 191.641C319.065 191.999 318.602 192.389 317.951 192.81L315.696 194.264L319.371 194.912Z" fill="white"/>
<path d="M281.463 188.228L281.188 189.788L274.818 188.665L275.037 187.424L278.83 184.985C279.234 184.723 279.519 184.485 279.687 184.271C279.855 184.057 279.96 183.832 280.001 183.596C280.057 183.28 279.978 183.015 279.764 182.798C279.56 182.575 279.237 182.425 278.796 182.347C277.984 182.204 277.325 182.372 276.818 182.852L275.606 181.712C276.013 181.288 276.528 180.993 277.151 180.827C277.775 180.652 278.468 180.632 279.233 180.767C279.863 180.878 280.396 181.078 280.833 181.366C281.279 181.648 281.599 181.997 281.794 182.413C281.99 182.821 282.044 183.273 281.957 183.77C281.88 184.203 281.705 184.599 281.431 184.957C281.156 185.314 280.694 185.704 280.043 186.125L277.788 187.58L281.463 188.228ZM289.291 189.632L289.02 191.169L283.478 190.192L283.749 188.655L285.675 188.995L286.592 183.795L284.819 183.483L285.09 181.946L288.789 182.598L287.601 189.335L289.291 189.632Z" fill="white"/>
<path d="M251.599 182.962L251.324 184.522L244.954 183.399L245.173 182.158L248.966 179.72C249.37 179.458 249.656 179.22 249.823 179.006C249.991 178.792 250.096 178.566 250.137 178.33C250.193 178.015 250.114 177.749 249.9 177.533C249.696 177.31 249.373 177.159 248.932 177.082C248.12 176.939 247.461 177.107 246.954 177.586L245.742 176.446C246.15 176.022 246.665 175.727 247.287 175.561C247.911 175.387 248.605 175.367 249.369 175.502C249.999 175.613 250.533 175.812 250.969 176.101C251.415 176.382 251.735 176.731 251.93 177.147C252.126 177.556 252.18 178.008 252.093 178.504C252.017 178.938 251.841 179.333 251.567 179.691C251.293 180.049 250.83 180.438 250.179 180.86L247.924 182.314L251.599 182.962ZM256.165 185.522C255.464 185.398 254.871 185.119 254.388 184.685C253.905 184.242 253.567 183.671 253.374 182.97C253.188 182.272 253.173 181.485 253.327 180.61C253.481 179.736 253.765 179.002 254.178 178.409C254.599 177.817 255.112 177.4 255.715 177.157C256.32 176.906 256.973 176.842 257.674 176.966C258.375 177.09 258.967 177.373 259.449 177.815C259.933 178.25 260.272 178.817 260.465 179.517C260.659 180.218 260.678 181.005 260.524 181.879C260.37 182.754 260.082 183.487 259.661 184.079C259.24 184.671 258.727 185.092 258.122 185.343C257.519 185.586 256.866 185.646 256.165 185.522ZM256.451 183.903C256.963 183.993 257.407 183.844 257.785 183.456C258.162 183.067 258.429 182.428 258.586 181.538C258.743 180.647 258.71 179.955 258.489 179.461C258.267 178.967 257.9 178.675 257.388 178.585C256.876 178.495 256.432 178.644 256.054 179.032C255.677 179.421 255.41 180.06 255.253 180.95C255.096 181.84 255.129 182.533 255.35 183.027C255.572 183.52 255.939 183.813 256.451 183.903Z" fill="white"/>
<path d="M221.416 177.92L221.189 179.208L215.776 178.254L216.004 176.966L218.048 177.326L219.052 171.63L217.15 171.294L217.377 170.006L220.828 170.615L219.596 177.599L221.416 177.92ZM227.499 171.669C228.657 171.873 229.497 172.387 230.018 173.21C230.546 174.034 230.695 175.104 230.463 176.42C230.31 177.287 229.997 178.024 229.525 178.631C229.061 179.232 228.47 179.659 227.751 179.914C227.04 180.171 226.247 180.222 225.372 180.068C224.963 179.995 224.573 179.878 224.204 179.715C223.834 179.553 223.53 179.365 223.292 179.152L224.069 178.059C224.435 178.424 224.945 178.664 225.599 178.779C226.442 178.928 227.164 178.799 227.763 178.393C228.364 177.979 228.745 177.319 228.904 176.413L228.917 176.343C228.629 176.592 228.258 176.762 227.803 176.853C227.357 176.945 226.877 176.945 226.365 176.855C225.798 176.755 225.308 176.559 224.897 176.267C224.485 175.975 224.184 175.614 223.992 175.182C223.808 174.751 223.759 174.288 223.847 173.791C223.94 173.264 224.156 172.822 224.495 172.468C224.843 172.107 225.276 171.858 225.796 171.722C226.325 171.58 226.892 171.562 227.499 171.669ZM226.885 175.704C227.397 175.794 227.841 175.739 228.218 175.537C228.603 175.337 228.832 175.028 228.906 174.61C228.949 174.366 228.914 174.124 228.802 173.885C228.699 173.64 228.521 173.429 228.267 173.255C228.015 173.072 227.704 172.948 227.334 172.883C226.845 172.797 226.416 172.855 226.048 173.058C225.687 173.263 225.469 173.574 225.396 173.991C225.322 174.409 225.42 174.775 225.689 175.091C225.966 175.408 226.365 175.612 226.885 175.704Z" fill="#333333"/>
<path d="M405.066 184.176L404.839 185.464L399.426 184.51L399.653 183.221L401.698 183.582L402.702 177.886L400.799 177.55L401.027 176.262L404.477 176.871L403.246 183.855L405.066 184.176ZM412.87 182.396C413.285 182.672 413.58 183 413.757 183.381C413.935 183.754 413.984 184.164 413.905 184.613C413.816 185.118 413.593 185.533 413.234 185.86C412.876 186.187 412.411 186.405 411.839 186.516C411.277 186.619 410.645 186.61 409.944 186.486C409.242 186.362 408.645 186.156 408.152 185.865C407.66 185.568 407.302 185.204 407.077 184.774C406.86 184.346 406.796 183.88 406.885 183.376C406.964 182.927 407.151 182.557 407.446 182.268C407.742 181.971 408.128 181.763 408.604 181.644C408.282 181.4 408.055 181.117 407.926 180.793C407.797 180.462 407.767 180.103 407.835 179.717C407.917 179.252 408.122 178.87 408.451 178.571C408.78 178.271 409.202 178.069 409.716 177.965C410.23 177.861 410.806 177.865 411.444 177.977C412.082 178.09 412.629 178.284 413.084 178.559C413.539 178.834 413.87 179.169 414.077 179.562C414.283 179.956 414.346 180.386 414.264 180.851C414.196 181.237 414.042 181.559 413.801 181.817C413.568 182.076 413.258 182.269 412.87 182.396ZM411.231 179.183C410.719 179.092 410.291 179.126 409.946 179.285C409.603 179.436 409.399 179.692 409.335 180.055C409.273 180.409 409.372 180.719 409.634 180.985C409.905 181.244 410.301 181.419 410.821 181.511C411.349 181.604 411.784 181.575 412.128 181.424C412.473 181.266 412.676 181.009 412.739 180.655C412.803 180.292 412.695 179.981 412.416 179.721C412.138 179.452 411.744 179.273 411.231 179.183ZM410.156 185.281C410.771 185.389 411.272 185.355 411.66 185.18C412.057 185.006 412.292 184.711 412.365 184.293C412.437 183.883 412.317 183.529 412.004 183.23C411.691 182.931 411.232 182.729 410.625 182.622C410.011 182.513 409.509 182.547 409.121 182.722C408.74 182.899 408.514 183.192 408.442 183.601C408.368 184.019 408.48 184.376 408.777 184.672C409.082 184.969 409.542 185.172 410.156 185.281Z" fill="#009897"/>
<path d="M375.202 178.91L374.975 180.198L369.562 179.244L369.789 177.956L371.834 178.316L372.838 172.62L370.936 172.285L371.163 170.997L374.614 171.605L373.382 178.589L375.202 178.91ZM385.01 173.438L384.829 174.466L380.053 181.094L378.434 180.808L383.008 174.426L379.427 173.794L379.18 175.201L377.75 174.948L378.227 172.242L385.01 173.438Z" fill="#009897"/>
<path d="M345.338 173.644L345.111 174.932L339.699 173.978L339.926 172.69L341.97 173.05L342.975 167.354L341.072 167.019L341.299 165.73L344.75 166.339L343.518 173.323L345.338 173.644ZM351.669 170.825C352.236 170.925 352.726 171.121 353.137 171.412C353.549 171.704 353.847 172.066 354.031 172.496C354.223 172.928 354.275 173.392 354.187 173.888C354.094 174.416 353.874 174.861 353.526 175.222C353.187 175.576 352.753 175.825 352.225 175.967C351.705 176.103 351.142 176.117 350.535 176.011C349.377 175.806 348.534 175.292 348.005 174.468C347.484 173.645 347.339 172.575 347.571 171.26C347.724 170.393 348.032 169.659 348.496 169.059C348.968 168.452 349.56 168.02 350.272 167.763C350.991 167.508 351.788 167.458 352.662 167.612C353.072 167.684 353.461 167.802 353.831 167.964C354.201 168.119 354.509 168.308 354.755 168.529L353.965 169.621C353.599 169.256 353.089 169.016 352.435 168.9C351.592 168.752 350.87 168.884 350.269 169.298C349.669 169.704 349.29 170.36 349.13 171.266L349.117 171.337C349.405 171.087 349.772 170.917 350.219 170.825C350.674 170.734 351.157 170.734 351.669 170.825ZM350.701 174.797C351.189 174.883 351.614 174.824 351.975 174.619C352.344 174.416 352.565 174.106 352.639 173.688C352.712 173.271 352.61 172.904 352.333 172.587C352.064 172.271 351.669 172.068 351.149 171.976C350.637 171.886 350.189 171.94 349.804 172.141C349.428 172.342 349.202 172.652 349.129 173.07C349.086 173.314 349.116 173.559 349.219 173.804C349.331 174.043 349.513 174.254 349.765 174.437C350.019 174.611 350.33 174.731 350.701 174.797Z" fill="#333333"/>
<path d="M315.475 168.379L315.248 169.667L309.835 168.713L310.062 167.425L312.107 167.785L313.111 162.089L311.208 161.753L311.436 160.465L314.886 161.074L313.655 168.058L315.475 168.379ZM320.818 165.422C322.063 165.641 322.937 166.031 323.439 166.591C323.951 167.144 324.138 167.811 324.001 168.591C323.913 169.087 323.708 169.514 323.385 169.871C323.062 170.229 322.623 170.48 322.07 170.626C321.524 170.774 320.877 170.781 320.128 170.65C319.514 170.541 318.929 170.353 318.376 170.085C317.831 169.81 317.392 169.489 317.059 169.121L317.919 168.042C318.198 168.351 318.552 168.621 318.983 168.851C319.415 169.074 319.875 169.228 320.364 169.314C320.947 169.417 321.419 169.386 321.781 169.223C322.152 169.053 322.373 168.771 322.442 168.377C322.517 167.951 322.392 167.6 322.067 167.324C321.752 167.041 321.16 166.823 320.294 166.67L318.19 166.299L319.421 161.873L324.468 162.763L324.24 164.051L320.482 163.389L319.968 165.272L320.818 165.422Z" fill="#333333"/>
<path d="M285.611 163.113L285.384 164.401L279.972 163.447L280.199 162.158L282.243 162.519L283.248 156.823L281.345 156.487L281.572 155.199L285.023 155.808L283.791 162.792L285.611 163.113ZM294.363 164.047L292.933 163.795L292.602 165.674L291.136 165.415L291.468 163.536L287.249 162.792L287.436 161.729L292.016 157.041L293.682 157.335L289.31 161.815L291.768 162.249L292.049 160.653L293.444 160.899L293.162 162.495L294.592 162.747L294.363 164.047Z" fill="#333333"/>
<path d="M255.748 157.847L255.52 159.135L250.108 158.181L250.335 156.893L252.38 157.253L253.384 151.557L251.481 151.222L251.708 149.934L255.159 150.542L253.928 157.526L255.748 157.847ZM262.2 155.305C262.97 155.546 263.53 155.917 263.88 156.418C264.24 156.912 264.364 157.478 264.251 158.116C264.166 158.597 263.963 159.012 263.642 159.361C263.32 159.71 262.882 159.958 262.329 160.104C261.776 160.242 261.13 160.246 260.389 160.116C259.727 159.999 259.127 159.808 258.589 159.542C258.061 159.27 257.634 158.948 257.31 158.574L258.255 157.497C258.85 158.179 259.636 158.606 260.613 158.778C261.196 158.881 261.672 158.851 262.042 158.689C262.421 158.52 262.645 158.243 262.713 157.857C262.779 157.479 262.667 157.15 262.375 156.871C262.083 156.592 261.622 156.397 260.991 156.286L260.2 156.146L260.385 155.095L262.788 153.215L258.663 152.488L258.891 151.2L264.929 152.265L264.748 153.293L262.2 155.305Z" fill="#333333"/>
<path d="M225.884 152.581L225.657 153.869L220.244 152.915L220.471 151.627L222.516 151.987L223.52 146.291L221.618 145.956L221.845 144.667L225.296 145.276L224.064 152.26L225.884 152.581ZM234.12 154.021L233.891 155.321L227.651 154.221L227.832 153.193L231.774 150.671C232.223 150.384 232.537 150.123 232.717 149.887C232.896 149.65 233.01 149.398 233.057 149.13C233.124 148.752 233.033 148.436 232.786 148.181C232.548 147.919 232.165 147.742 231.637 147.649C230.746 147.492 230.014 147.66 229.44 148.151L228.511 147.134C228.918 146.76 229.426 146.504 230.035 146.368C230.645 146.223 231.301 146.213 232.002 146.337C232.617 146.445 233.135 146.638 233.557 146.916C233.989 147.187 234.295 147.525 234.475 147.93C234.665 148.329 234.717 148.769 234.632 149.25C234.556 149.683 234.38 150.082 234.104 150.448C233.838 150.807 233.38 151.194 232.73 151.607L230.09 153.311L234.12 154.021Z" fill="#333333"/>
<path d="M409.534 158.837L409.307 160.126L403.894 159.171L404.121 157.883L406.166 158.244L407.17 152.547L405.267 152.212L405.495 150.924L408.945 151.532L407.714 158.517L409.534 158.837ZM417.579 160.256L417.351 161.544L411.939 160.59L412.166 159.302L414.211 159.662L415.215 153.966L413.312 153.63L413.539 152.342L416.99 152.951L415.759 159.935L417.579 160.256Z" fill="#009897"/>
<path d="M379.67 153.572L379.443 154.86L374.03 153.906L374.258 152.617L376.302 152.978L377.306 147.282L375.404 146.946L375.631 145.658L379.082 146.267L377.85 153.251L379.67 153.572ZM384.56 155.884C383.874 155.763 383.294 155.486 382.818 155.053C382.351 154.613 382.024 154.048 381.837 153.357C381.66 152.659 381.647 151.877 381.8 151.011C381.953 150.144 382.231 149.417 382.635 148.831C383.049 148.237 383.549 147.818 384.137 147.572C384.734 147.32 385.375 147.254 386.06 147.375C386.746 147.496 387.322 147.776 387.788 148.216C388.264 148.649 388.591 149.215 388.769 149.912C388.956 150.603 388.973 151.382 388.82 152.249C388.667 153.115 388.384 153.845 387.971 154.438C387.567 155.025 387.066 155.445 386.469 155.697C385.882 155.942 385.245 156.005 384.56 155.884ZM384.795 154.549C385.386 154.653 385.903 154.488 386.345 154.054C386.796 153.614 387.105 152.921 387.272 151.976C387.438 151.03 387.384 150.277 387.109 149.717C386.844 149.15 386.416 148.815 385.825 148.711C385.234 148.607 384.713 148.775 384.261 149.215C383.819 149.649 383.515 150.338 383.348 151.284C383.182 152.229 383.231 152.985 383.497 153.552C383.772 154.112 384.204 154.444 384.795 154.549Z" fill="#009897"/>
<path d="M351.867 141.346C353.025 141.55 353.865 142.064 354.386 142.887C354.915 143.711 355.063 144.781 354.831 146.097C354.678 146.963 354.365 147.7 353.893 148.307C353.429 148.908 352.838 149.336 352.119 149.591C351.408 149.847 350.615 149.898 349.74 149.744C349.331 149.672 348.941 149.554 348.572 149.392C348.202 149.229 347.898 149.042 347.66 148.829L348.437 147.735C348.803 148.1 349.313 148.341 349.967 148.456C350.81 148.605 351.532 148.476 352.131 148.07C352.732 147.656 353.113 146.996 353.272 146.09L353.285 146.019C352.997 146.269 352.626 146.439 352.171 146.529C351.725 146.621 351.245 146.622 350.733 146.532C350.166 146.432 349.677 146.236 349.265 145.944C348.853 145.652 348.552 145.29 348.36 144.858C348.176 144.428 348.127 143.964 348.215 143.468C348.308 142.94 348.524 142.499 348.863 142.144C349.211 141.783 349.644 141.535 350.164 141.399C350.693 141.256 351.26 141.239 351.867 141.346ZM351.253 145.38C351.765 145.471 352.209 145.415 352.586 145.213C352.971 145.013 353.2 144.704 353.274 144.287C353.317 144.042 353.282 143.801 353.17 143.562C353.067 143.316 352.889 143.106 352.635 142.931C352.383 142.749 352.072 142.625 351.702 142.56C351.213 142.473 350.785 142.532 350.416 142.735C350.055 142.939 349.837 143.25 349.764 143.668C349.69 144.085 349.788 144.452 350.057 144.767C350.334 145.084 350.733 145.289 351.253 145.38Z" fill="#333333"/>
<path d="M323.725 140.552C324.139 140.828 324.435 141.156 324.611 141.536C324.789 141.909 324.839 142.32 324.76 142.769C324.671 143.273 324.447 143.689 324.089 144.015C323.731 144.342 323.266 144.561 322.694 144.671C322.131 144.775 321.499 144.765 320.798 144.641C320.097 144.518 319.5 144.311 319.007 144.021C318.515 143.723 318.157 143.359 317.932 142.93C317.715 142.502 317.651 142.035 317.74 141.531C317.819 141.082 318.006 140.713 318.301 140.424C318.597 140.127 318.983 139.918 319.459 139.799C319.136 139.556 318.91 139.272 318.78 138.949C318.652 138.617 318.622 138.259 318.69 137.872C318.772 137.408 318.977 137.026 319.306 136.726C319.635 136.427 320.057 136.225 320.57 136.12C321.084 136.016 321.66 136.02 322.299 136.133C322.937 136.245 323.483 136.439 323.939 136.714C324.394 136.99 324.725 137.324 324.931 137.718C325.138 138.112 325.2 138.541 325.118 139.006C325.05 139.392 324.896 139.714 324.656 139.972C324.423 140.232 324.113 140.425 323.725 140.552ZM322.086 137.338C321.574 137.248 321.146 137.282 320.801 137.44C320.457 137.591 320.254 137.848 320.19 138.21C320.127 138.565 320.227 138.875 320.489 139.14C320.76 139.399 321.156 139.575 321.676 139.666C322.203 139.759 322.639 139.73 322.982 139.58C323.327 139.421 323.531 139.165 323.593 138.81C323.657 138.448 323.55 138.136 323.271 137.876C322.993 137.608 322.598 137.428 322.086 137.338ZM321.011 143.436C321.625 143.544 322.127 143.511 322.515 143.336C322.911 143.162 323.146 142.866 323.22 142.449C323.292 142.039 323.172 141.685 322.859 141.386C322.546 141.087 322.086 140.884 321.48 140.777C320.865 140.669 320.364 140.702 319.975 140.877C319.595 141.054 319.369 141.347 319.296 141.757C319.223 142.174 319.334 142.531 319.632 142.827C319.937 143.125 320.396 143.328 321.011 143.436Z" fill="#333333"/>
<path d="M295.865 131.593L295.684 132.621L290.908 139.249L289.289 138.963L293.863 132.581L290.282 131.949L290.034 133.356L288.604 133.103L289.082 130.397L295.865 131.593Z" fill="#333333"/>
<path d="M262.524 128.98C263.091 129.08 263.58 129.276 263.992 129.568C264.404 129.86 264.701 130.221 264.885 130.652C265.077 131.083 265.13 131.548 265.042 132.044C264.949 132.572 264.728 133.016 264.38 133.377C264.042 133.732 263.608 133.98 263.079 134.123C262.56 134.259 261.997 134.273 261.39 134.166C260.232 133.962 259.388 133.447 258.86 132.623C258.339 131.8 258.194 130.731 258.426 129.415C258.579 128.548 258.887 127.815 259.35 127.214C259.823 126.607 260.415 126.175 261.126 125.919C261.845 125.664 262.642 125.613 263.517 125.768C263.926 125.84 264.316 125.957 264.685 126.12C265.056 126.275 265.364 126.463 265.609 126.685L264.82 127.776C264.454 127.411 263.943 127.171 263.29 127.056C262.447 126.907 261.725 127.04 261.124 127.454C260.524 127.86 260.144 128.516 259.985 129.422L259.972 129.493C260.26 129.243 260.627 129.072 261.074 128.98C261.528 128.89 262.012 128.89 262.524 128.98ZM261.555 132.952C262.044 133.038 262.469 132.979 262.829 132.775C263.198 132.572 263.42 132.261 263.493 131.844C263.567 131.426 263.465 131.059 263.188 130.742C262.919 130.427 262.524 130.223 262.004 130.131C261.492 130.041 261.044 130.096 260.659 130.296C260.282 130.498 260.057 130.807 259.983 131.225C259.94 131.469 259.97 131.714 260.073 131.96C260.185 132.199 260.367 132.41 260.62 132.592C260.873 132.767 261.185 132.887 261.555 132.952Z" fill="#333333"/>
<path d="M231.673 123.576C232.918 123.796 233.792 124.186 234.294 124.745C234.806 125.299 234.993 125.965 234.855 126.745C234.768 127.242 234.563 127.668 234.24 128.026C233.917 128.383 233.478 128.635 232.924 128.781C232.379 128.928 231.731 128.936 230.983 128.804C230.368 128.696 229.784 128.507 229.23 128.239C228.686 127.964 228.247 127.643 227.914 127.276L228.774 126.197C229.053 126.506 229.407 126.776 229.838 127.006C230.27 127.228 230.73 127.382 231.218 127.469C231.801 127.571 232.274 127.541 232.636 127.377C233.007 127.207 233.227 126.925 233.297 126.531C233.372 126.106 233.247 125.755 232.922 125.478C232.606 125.195 232.015 124.977 231.148 124.824L229.045 124.453L230.276 120.028L235.322 120.918L235.095 122.206L231.337 121.543L230.822 123.426L231.673 123.576Z" fill="#333333"/>
<path d="M418.731 133.723L417.301 133.471L416.97 135.35L415.505 135.092L415.836 133.213L411.617 132.469L411.804 131.405L416.384 126.717L418.05 127.011L413.678 131.492L416.136 131.925L416.417 130.33L417.812 130.576L417.53 132.171L418.96 132.423L418.731 133.723Z" fill="#009897"/>
<path d="M386.568 124.982C387.338 125.223 387.898 125.594 388.248 126.094C388.608 126.588 388.732 127.154 388.619 127.792C388.534 128.273 388.331 128.688 388.01 129.037C387.688 129.387 387.25 129.635 386.697 129.781C386.144 129.919 385.498 129.923 384.757 129.792C384.095 129.675 383.496 129.484 382.957 129.219C382.429 128.947 382.002 128.624 381.678 128.25L382.623 127.174C383.218 127.855 384.004 128.282 384.981 128.455C385.564 128.557 386.04 128.528 386.41 128.366C386.789 128.197 387.013 127.919 387.081 127.533C387.147 127.155 387.035 126.827 386.743 126.548C386.451 126.269 385.99 126.074 385.359 125.963L384.568 125.823L384.753 124.771L387.156 122.892L383.032 122.165L383.259 120.876L389.297 121.941L389.116 122.969L386.568 124.982Z" fill="#009897"/>
<path d="M358.488 123.698L358.259 124.998L352.019 123.897L352.2 122.869L356.142 120.347C356.591 120.061 356.905 119.8 357.085 119.563C357.265 119.327 357.378 119.075 357.425 118.807C357.492 118.429 357.402 118.112 357.154 117.857C356.916 117.596 356.533 117.419 356.005 117.326C355.115 117.169 354.382 117.336 353.808 117.828L352.879 116.811C353.286 116.436 353.794 116.18 354.403 116.044C355.013 115.9 355.669 115.89 356.37 116.013C356.985 116.122 357.503 116.314 357.925 116.592C358.357 116.863 358.663 117.201 358.843 117.607C359.033 118.006 359.085 118.446 359.001 118.926C358.924 119.359 358.748 119.759 358.472 120.125C358.206 120.484 357.748 120.87 357.098 121.284L354.458 122.987L358.488 123.698Z" fill="#333333"/>
<path d="M328.433 118.411L328.206 119.699L322.794 118.745L323.021 117.457L325.065 117.817L326.07 112.121L324.167 111.785L324.394 110.497L327.845 111.106L326.613 118.09L328.433 118.411Z" fill="#333333"/>
<path d="M292.637 108.48C293.466 108.707 294.072 109.074 294.454 109.58C294.837 110.078 294.971 110.654 294.856 111.308C294.772 111.781 294.575 112.189 294.262 112.532C293.951 112.867 293.528 113.105 292.991 113.246C292.464 113.38 291.849 113.386 291.148 113.262C290.486 113.145 289.895 112.952 289.374 112.681C288.862 112.404 288.461 112.077 288.17 111.701L288.937 110.874C289.503 111.583 290.302 112.028 291.334 112.21C291.987 112.325 292.519 112.285 292.927 112.089C293.344 111.886 293.593 111.561 293.672 111.111C293.751 110.662 293.628 110.279 293.302 109.962C292.977 109.636 292.461 109.411 291.752 109.286L291.078 109.168L291.224 108.34L293.872 106.175L289.488 105.402L289.669 104.374L295.554 105.412L295.413 106.215L292.637 108.48ZM302.487 114.104L302.306 115.132L297.023 114.2L297.205 113.172L299.367 113.554L300.463 107.337L298.431 106.979L298.612 105.951L301.826 106.518L300.549 113.762L302.487 114.104Z" fill="#808080"/>
<path d="M262.773 103.214C263.602 103.442 264.208 103.808 264.59 104.314C264.973 104.812 265.107 105.388 264.992 106.042C264.909 106.515 264.711 106.923 264.398 107.266C264.088 107.601 263.664 107.839 263.127 107.98C262.6 108.114 261.986 108.12 261.284 107.996C260.623 107.88 260.031 107.686 259.51 107.415C258.999 107.138 258.597 106.812 258.306 106.435L259.073 105.608C259.639 106.317 260.438 106.763 261.47 106.944C262.124 107.06 262.655 107.019 263.063 106.823C263.481 106.621 263.729 106.295 263.808 105.846C263.887 105.397 263.764 105.014 263.438 104.696C263.114 104.371 262.597 104.146 261.888 104.021L261.214 103.902L261.36 103.075L264.008 100.91L259.624 100.137L259.805 99.1084L265.69 100.146L265.549 100.95L262.773 103.214ZM269.577 109.459C268.908 109.34 268.343 109.066 267.883 108.636C267.432 108.199 267.117 107.636 266.938 106.946C266.767 106.258 266.757 105.484 266.908 104.626C267.06 103.767 267.333 103.043 267.729 102.455C268.133 101.869 268.621 101.451 269.193 101.202C269.774 100.947 270.4 100.879 271.069 100.997C271.739 101.115 272.299 101.393 272.75 101.83C273.211 102.26 273.526 102.819 273.697 103.508C273.876 104.197 273.89 104.971 273.739 105.83C273.587 106.689 273.31 107.412 272.906 107.998C272.509 108.586 272.021 109.008 271.44 109.263C270.868 109.511 270.247 109.577 269.577 109.459ZM269.763 108.407C270.433 108.525 271.021 108.344 271.528 107.865C272.036 107.378 272.379 106.63 272.557 105.622C272.735 104.613 272.667 103.797 272.355 103.173C272.044 102.542 271.554 102.167 270.884 102.049C270.214 101.931 269.625 102.115 269.117 102.602C268.61 103.082 268.268 103.826 268.09 104.834C267.912 105.842 267.979 106.662 268.29 107.294C268.602 107.918 269.093 108.289 269.763 108.407Z" fill="#808080"/>
<path d="M234.88 102.183L234.699 103.211L228.589 102.133L228.731 101.33L232.79 98.6947C233.285 98.3758 233.633 98.0877 233.832 97.8305C234.033 97.5654 234.16 97.2871 234.211 96.9956C234.286 96.5701 234.184 96.2068 233.904 95.9056C233.624 95.6044 233.18 95.4003 232.574 95.2934C231.605 95.1225 230.812 95.2874 230.196 95.788L229.513 94.9608C229.923 94.6188 230.414 94.3886 230.987 94.2704C231.57 94.1456 232.192 94.1416 232.854 94.2583C233.768 94.4194 234.452 94.7553 234.906 95.2659C235.368 95.778 235.537 96.3846 235.414 97.0858C235.337 97.5191 235.162 97.9146 234.888 98.2724C234.621 98.6316 234.167 99.0187 233.525 99.4335L230.496 101.41L234.88 102.183ZM240.887 95.6747C242.013 95.8734 242.829 96.3828 243.335 97.203C243.84 98.0232 243.976 99.0951 243.742 100.419C243.588 101.293 243.283 102.031 242.828 102.634C242.374 103.228 241.8 103.646 241.108 103.89C240.423 104.135 239.663 104.183 238.828 104.036C238.442 103.968 238.074 103.863 237.726 103.72C237.386 103.571 237.097 103.394 236.857 103.189L237.473 102.323C237.834 102.671 238.345 102.903 239.007 103.02C239.598 103.124 240.139 103.094 240.631 102.929C241.123 102.764 241.537 102.467 241.873 102.039C242.208 101.61 242.434 101.065 242.551 100.404C242.576 100.262 242.591 100.151 242.597 100.071C242.314 100.386 241.926 100.606 241.433 100.73C240.948 100.856 240.426 100.87 239.866 100.771C239.307 100.672 238.821 100.481 238.408 100.197C238.004 99.9065 237.71 99.5499 237.524 99.1273C237.34 98.6968 237.291 98.2373 237.377 97.7488C237.468 97.2367 237.678 96.8066 238.007 96.4585C238.344 96.1119 238.761 95.8685 239.257 95.7285C239.76 95.5898 240.304 95.5719 240.887 95.6747ZM240.248 99.8512C240.823 99.9526 241.326 99.887 241.757 99.6543C242.196 99.423 242.456 99.0749 242.538 98.6101C242.585 98.3422 242.548 98.0716 242.425 97.7982C242.304 97.5169 242.1 97.2736 241.811 97.0684C241.531 96.8566 241.179 96.7132 240.753 96.6382C240.194 96.5396 239.707 96.608 239.292 96.8435C238.884 97.0803 238.639 97.4351 238.556 97.9078C238.472 98.3806 238.585 98.7985 238.895 99.1618C239.206 99.5172 239.657 99.747 240.248 99.8512Z" fill="#808080"/>
<path d="M333.932 146.093C339.675 130.144 318.464 123.577 311.463 133.65C301.545 147.921 328.189 162.043 333.932 146.093Z" stroke="#F2675E" stroke-width="5" stroke-linecap="round"/>
<circle cx="130.433" cy="74.4866" r="7.35135" fill="#F79351"/>
<circle cx="127.676" cy="70.8108" r="7.35135" stroke="#741CDB" stroke-width="3"/>
<circle cx="446.541" cy="63.4595" r="14.7027" fill="#1DAFAE"/>
<circle cx="449.297" cy="59.7838" r="14.7027" stroke="#741CDB" stroke-width="3"/>
<mask id="path-62-inside-2_1798_76464" fill="white">
<path d="M410.703 76.3241C410.703 78.3541 409.057 79.9998 407.027 79.9998C404.997 79.9998 403.352 78.3541 403.352 76.3241C403.352 74.2941 407.027 72.6484 407.027 72.6484C409.057 72.6484 410.703 74.2941 410.703 76.3241Z"/>
</mask>
<path d="M410.703 76.3241C410.703 78.3541 409.057 79.9998 407.027 79.9998C404.997 79.9998 403.352 78.3541 403.352 76.3241C403.352 74.2941 407.027 72.6484 407.027 72.6484C409.057 72.6484 410.703 74.2941 410.703 76.3241Z" stroke="#741CDB" stroke-width="4" mask="url(#path-62-inside-2_1798_76464)"/>
<circle cx="483.757" cy="86.892" r="1.2973" stroke="#741CDB" stroke-width="2"/>
<circle cx="69.3244" cy="150.297" r="1.2973" stroke="#741CDB" stroke-width="2"/>
<circle cx="157.081" cy="186.595" r="2.67568" stroke="#741CDB" stroke-width="2"/>
<circle cx="103.784" cy="98.3783" r="2.67568" stroke="#741CDB" stroke-width="2"/>
<circle cx="458.487" cy="178.324" r="3.09459" stroke="#741CDB" stroke-width="3"/>
<circle cx="129.514" cy="157.19" r="11.027" fill="#3DC876"/>
<circle cx="126.757" cy="153.514" r="11.027" stroke="#741CDB" stroke-width="3"/>
<circle cx="198.432" cy="120.432" r="40.4324" fill="#F2675E"/>
<circle cx="193.838" cy="116.757" r="40.4324" stroke="#741CDB" stroke-width="3"/>
<path d="M192.002 128.909C192.002 126.413 192.554 124.349 193.658 122.717C194.81 121.085 196.466 119.285 198.626 117.317C200.21 115.877 201.362 114.677 202.082 113.717C202.85 112.709 203.234 111.581 203.234 110.333C203.234 108.557 202.514 107.165 201.074 106.157C199.682 105.101 197.81 104.573 195.458 104.573C193.202 104.573 191.186 105.053 189.41 106.013C187.682 106.925 186.218 108.221 185.018 109.901L176.306 104.789C178.322 101.717 181.034 99.3413 184.442 97.6613C187.898 95.9813 191.978 95.1413 196.682 95.1413C202.202 95.1413 206.618 96.3173 209.93 98.6693C213.29 101.021 214.97 104.285 214.97 108.461C214.97 110.429 214.634 112.157 213.962 113.645C213.338 115.133 212.546 116.405 211.586 117.461C210.674 118.469 209.474 119.645 207.986 120.989C206.21 122.573 204.914 123.917 204.098 125.021C203.282 126.077 202.874 127.373 202.874 128.909H192.002ZM197.474 146.981C195.506 146.981 193.85 146.357 192.506 145.109C191.21 143.813 190.562 142.253 190.562 140.429C190.562 138.605 191.21 137.093 192.506 135.893C193.802 134.645 195.458 134.021 197.474 134.021C199.49 134.021 201.146 134.645 202.442 135.893C203.738 137.093 204.386 138.605 204.386 140.429C204.386 142.253 203.714 143.813 202.37 145.109C201.074 146.357 199.442 146.981 197.474 146.981Z" fill="white"/>
</g>
</svg>
