<svg width="555" height="296" viewBox="0 0 555 296" fill="none" xmlns="http://www.w3.org/2000/svg">
<path d="M33.3925 86.7325C-13.7737 144.612 87.4912 269.462 300.506 283.384C317.455 284.492 333.345 284.079 348.216 282.363C520.239 262.515 555.938 68.3006 518.592 36.2645C472.946 -3.76189 103.3 0.946716 33.3925 86.7325Z" fill="#9F5DF1"/>
<mask id="mask0_1798_76555" style="mask-type:alpha" maskUnits="userSpaceOnUse" x="35" y="15" width="490" height="255">
<path d="M302.748 268.723C506.935 281.704 550.689 70.7546 511.797 38.3008C468.042 0.978888 113.714 5.36934 46.7042 85.3588C1.49255 139.327 98.561 255.741 302.748 268.723Z" fill="white"/>
</mask>
<g mask="url(#mask0_1798_76555)">
<mask id="path-3-inside-1_1798_76555" fill="white">
<path d="M-8.32434 10.1621H524.649V298.703H-8.32434V10.1621Z"/>
</mask>
<path d="M-8.32434 10.1621H524.649V298.703H-8.32434V10.1621Z" fill="#F4ECFF" stroke="#A6EDEC" stroke-width="2" mask="url(#path-3-inside-1_1798_76555)"/>
<circle opacity="0.3" cx="317.892" cy="168.216" r="128.649" fill="#C1A1F1"/>
<circle opacity="0.2" cx="317.892" cy="168.216" r="110.27" fill="#9F5DF1"/>
<circle cx="88.1621" cy="103.892" r="7.35135" fill="#F79351"/>
<circle cx="85.4054" cy="100.217" r="6.35135" stroke="#741CDB" stroke-width="2"/>
<circle cx="454.811" cy="82.7566" r="8.27027" fill="#1DAFAE"/>
<circle cx="457.568" cy="79.0808" r="7.27027" stroke="#741CDB" stroke-width="2"/>
<mask id="path-10-inside-2_1798_76555" fill="white">
<path d="M384.054 36.8109C384.054 38.8409 382.408 40.4866 380.378 40.4866C378.348 40.4866 376.703 38.8409 376.703 36.8109C376.703 34.7809 380.378 33.1353 380.378 33.1353C382.408 33.1353 384.054 34.7809 384.054 36.8109Z"/>
</mask>
<path d="M384.054 36.8109C384.054 38.8409 382.408 40.4866 380.378 40.4866C378.348 40.4866 376.703 38.8409 376.703 36.8109C376.703 34.7809 380.378 33.1353 380.378 33.1353C382.408 33.1353 384.054 34.7809 384.054 36.8109Z" stroke="#741CDB" stroke-width="4" mask="url(#path-10-inside-2_1798_76555)"/>
<circle cx="474.568" cy="59.3242" r="1.2973" stroke="#741CDB" stroke-width="2"/>
<circle cx="110.676" cy="168.676" r="1.2973" stroke="#741CDB" stroke-width="2"/>
<circle cx="142.378" cy="102.054" r="2.67568" stroke="#741CDB" stroke-width="2"/>
<circle cx="175.46" cy="214.162" r="6.35135" stroke="#741CDB" stroke-width="2"/>
<circle cx="223.243" cy="226.108" r="2.67568" stroke="#741CDB" stroke-width="2"/>
<circle cx="438.27" cy="158.108" r="3.59459" stroke="#741CDB" stroke-width="2"/>
<circle cx="152.486" cy="157.19" r="11.027" fill="#3DC876"/>
<circle cx="149.73" cy="153.514" r="10.027" stroke="#741CDB" stroke-width="2"/>
<circle opacity="0.8" cx="407.946" cy="211.406" r="22.0541" fill="#FF829B"/>
<circle cx="405.189" cy="207.73" r="22.0541" stroke="#741CDB" stroke-width="3"/>
<path d="M406.518 216.794C406.518 215.407 406.825 214.26 407.438 213.354C408.078 212.447 408.998 211.447 410.198 210.354C411.078 209.554 411.718 208.887 412.118 208.354C412.545 207.794 412.758 207.167 412.758 206.474C412.758 205.487 412.358 204.714 411.558 204.154C410.785 203.567 409.745 203.274 408.438 203.274C407.185 203.274 406.065 203.54 405.078 204.074C404.118 204.58 403.305 205.3 402.638 206.234L397.798 203.394C398.918 201.687 400.425 200.367 402.318 199.434C404.238 198.5 406.505 198.034 409.118 198.034C412.185 198.034 414.638 198.687 416.478 199.994C418.345 201.3 419.278 203.114 419.278 205.434C419.278 206.527 419.091 207.487 418.718 208.314C418.371 209.14 417.931 209.847 417.398 210.434C416.891 210.994 416.225 211.647 415.398 212.394C414.411 213.274 413.691 214.02 413.238 214.634C412.785 215.22 412.558 215.94 412.558 216.794H406.518ZM409.558 226.834C408.465 226.834 407.545 226.487 406.798 225.794C406.078 225.074 405.718 224.207 405.718 223.194C405.718 222.18 406.078 221.34 406.798 220.674C407.518 219.98 408.438 219.634 409.558 219.634C410.678 219.634 411.598 219.98 412.318 220.674C413.038 221.34 413.398 222.18 413.398 223.194C413.398 224.207 413.025 225.074 412.278 225.794C411.558 226.487 410.651 226.834 409.558 226.834Z" fill="white"/>
<circle opacity="0.8" cx="192.919" cy="73.5681" r="27.5676" fill="#9F5DF1"/>
<path d="M188.964 82.3928C188.964 80.3821 189.409 78.7195 190.298 77.4048C191.226 76.0901 192.56 74.6401 194.3 73.0548C195.576 71.8948 196.504 70.9281 197.084 70.1548C197.703 69.3428 198.012 68.4341 198.012 67.4288C198.012 65.9981 197.432 64.8768 196.272 64.0648C195.151 63.2141 193.643 62.7888 191.748 62.7888C189.931 62.7888 188.307 63.1755 186.876 63.9488C185.484 64.6835 184.305 65.7275 183.338 67.0808L176.32 62.9628C177.944 60.4881 180.129 58.5741 182.874 57.2208C185.658 55.8675 188.945 55.1908 192.734 55.1908C197.181 55.1908 200.738 56.1381 203.406 58.0328C206.113 59.9275 207.466 62.5568 207.466 65.9208C207.466 67.5061 207.196 68.8981 206.654 70.0968C206.152 71.2955 205.514 72.3201 204.74 73.1708C204.006 73.9828 203.039 74.9301 201.84 76.0128C200.41 77.2888 199.366 78.3715 198.708 79.2608C198.051 80.1115 197.722 81.1555 197.722 82.3928H188.964ZM193.372 96.9508C191.787 96.9508 190.453 96.4481 189.37 95.4428C188.326 94.3988 187.804 93.1421 187.804 91.6728C187.804 90.2035 188.326 88.9855 189.37 88.0188C190.414 87.0135 191.748 86.5108 193.372 86.5108C194.996 86.5108 196.33 87.0135 197.374 88.0188C198.418 88.9855 198.94 90.2035 198.94 91.6728C198.94 93.1421 198.399 94.3988 197.316 95.4428C196.272 96.4481 194.958 96.9508 193.372 96.9508Z" fill="white"/>
<circle cx="190.162" cy="69.8923" r="27.5676" stroke="#741CDB" stroke-width="3"/>
<path fill-rule="evenodd" clip-rule="evenodd" d="M344.541 152.595C344.541 177.691 326.249 198.515 302.27 202.462V216H310.811C315.229 216 318.811 219.582 318.811 224V224.541C318.811 228.959 315.229 232.541 310.811 232.541H302.27V241.081C302.27 245.5 298.689 249.081 294.27 249.081H293.73C289.311 249.081 285.73 245.5 285.73 241.081V232.541H277.189C272.771 232.541 269.189 228.959 269.189 224.541V224C269.189 219.582 272.771 216 277.189 216H285.73V202.462C261.751 198.515 243.459 177.691 243.459 152.595C243.459 124.682 266.087 102.054 294 102.054C321.913 102.054 344.541 124.682 344.541 152.595ZM294 186.595C312.778 186.595 328 171.372 328 152.595C328 133.817 312.778 118.595 294 118.595C275.222 118.595 260 133.817 260 152.595C260 171.372 275.222 186.595 294 186.595Z" fill="#FF829B"/>
<path fill-rule="evenodd" clip-rule="evenodd" d="M381.297 85.5139C381.297 80.9464 385 77.2437 389.568 77.2437H415.297C419.865 77.2437 423.568 80.9464 423.568 85.5139L423.568 85.5352V111.244C423.568 115.811 419.865 119.514 415.297 119.514C410.73 119.514 407.027 115.811 407.027 111.244V105.241L388.686 123.582C394.453 131.793 397.838 141.799 397.838 152.595C397.838 180.508 375.21 203.135 347.297 203.135C319.384 203.135 296.757 180.508 296.757 152.595C296.757 124.682 319.384 102.054 347.297 102.054C358.443 102.054 368.746 105.662 377.103 111.774L395.092 93.7842H389.568C385 93.7842 381.297 90.0815 381.297 85.5139ZM347.297 186.595C366.075 186.595 381.297 171.373 381.297 152.595C381.297 133.817 366.075 118.595 347.297 118.595C328.52 118.595 313.297 133.817 313.297 152.595C313.297 171.373 328.52 186.595 347.297 186.595Z" fill="#23C7C6"/>
<path fill-rule="evenodd" clip-rule="evenodd" d="M344.541 152.595C344.54 180.508 321.913 203.135 294 203.135C266.087 203.135 243.46 180.508 243.459 152.595H260C260 171.372 275.222 186.595 294 186.595C312.778 186.595 328 171.372 328 152.595H344.541ZM294.117 102.054C294.078 102.054 294.039 102.054 294 102.054C293.961 102.054 293.922 102.054 293.883 102.054H294.117Z" fill="#FF829B"/>
<path d="M386.811 74.4868H393.703M344.541 183.838C347.228 183.838 349.843 183.526 352.351 182.937C367.364 179.407 378.541 165.928 378.541 149.838C378.541 131.06 363.318 115.838 344.541 115.838C325.763 115.838 310.541 131.06 310.541 149.838C310.541 152.199 310.781 154.504 311.239 156.73M296.297 164.948C294.805 160.177 294 155.101 294 149.838C294 121.925 316.628 99.2976 344.541 99.2976C355.686 99.2976 365.989 102.906 374.346 109.017L392.336 91.0274H386.811C383.21 91.0274 380.146 88.726 379.011 85.5138M362.459 197.11C366.184 195.697 369.699 193.857 372.943 191.649M384.977 180.163C391.321 171.716 395.081 161.216 395.081 149.838C395.081 139.042 391.696 129.037 385.929 120.825L404.27 102.484V108.487C404.27 113.054 407.973 116.757 412.541 116.757C417.108 116.757 420.811 113.054 420.811 108.487V82.7571C420.811 78.1895 417.108 74.4868 412.541 74.4868H404.27" stroke="#741CDB" stroke-width="3" stroke-linecap="round"/>
<path d="M291.243 99.2979C293.581 99.2979 295.882 99.4566 298.135 99.7638M323.855 140.19C324.758 143.248 325.243 146.487 325.243 149.838C325.243 168.616 310.021 183.838 291.243 183.838C272.465 183.838 257.243 168.616 257.243 149.838C257.243 133.422 268.878 119.723 284.351 116.537M281.595 100.218C258.297 104.721 240.703 125.225 240.703 149.838C240.703 174.935 258.994 195.759 282.973 199.706V213.244H273.784C269.724 213.244 266.432 216.535 266.432 220.595V222.433C266.432 226.493 269.724 229.784 273.784 229.784H282.973V238.974C282.973 243.034 286.264 246.325 290.324 246.325H292.162C296.222 246.325 299.513 243.034 299.513 238.974V229.784H308.703C312.763 229.784 316.054 226.493 316.054 222.433V220.595C316.054 219.961 315.974 219.345 315.822 218.757M339.015 133.298C340.809 138.48 341.784 144.046 341.784 149.838C341.784 171.614 328.012 190.174 308.703 197.282M304.108 213.244H308.703C309.856 213.244 310.947 213.509 311.919 213.983" stroke="#741CDB" stroke-width="3" stroke-linecap="round"/>
</g>
</svg>
